<svg width="800" height="480" viewBox="0 0 800 480" xmlns="http://www.w3.org/2000/svg">
  <defs>
    <linearGradient id="bgGrad_coverstudio2svg" x1="0%" y1="0%" x2="100%" y2="100%">
      <stop offset="0%" stop-color="#073329" />
      <stop offset="100%" stop-color="#021712" />
    </linearGradient>
    <linearGradient id="accentGrad_coverstudio2svg" x1="0%" y1="0%" x2="100%" y2="100%">
      <stop offset="0%" stop-color="#10b981" />
      <stop offset="100%" stop-color="#38bdf8" />
    </linearGradient>
    <pattern id="grid_coverstudio2svg" width="40" height="40" patternUnits="userSpaceOnUse">
      <path d="M 40 0 L 0 0 0 40" fill="none" stroke="rgba(255,255,255,0.08)" stroke-width="1"/>
    </pattern>
    <filter id="blur_coverstudio2svg" x="-20%" y="-20%" width="140%" height="140%">
      <feGaussianBlur stdDeviation="45" />
    </filter>
  </defs>

  <rect width="800" height="480" fill="url(#bgGrad_coverstudio2svg)" />
  <rect width="800" height="480" fill="url(#grid_coverstudio2svg)" />

  <circle cx="650" cy="120" r="200" fill="#10b981" opacity="0.35" filter="url(#blur_coverstudio2svg)" />
  <circle cx="180" cy="380" r="180" fill="#38bdf8" opacity="0.25" filter="url(#blur_coverstudio2svg)" />

  <g transform="translate(560, 240) rotate(-15)">
    <rect x="-140" y="-140" width="280" height="280" rx="60" fill="none" stroke="url(#accentGrad_coverstudio2svg)" stroke-width="4" opacity="0.8" />
    <rect x="-100" y="-100" width="200" height="200" rx="45" fill="rgba(255,255,255,0.05)" stroke="rgba(255,255,255,0.2)" stroke-width="2" />
    <circle cx="0" cy="0" r="45" fill="url(#accentGrad_coverstudio2svg)" opacity="0.9" />
    <circle cx="-100" cy="-100" r="8" fill="#38bdf8" />
    <circle cx="100" cy="100" r="8" fill="#10b981" />
  </g>

  <path d="M 0 360 Q 200 240 400 380 T 800 280" fill="none" stroke="url(#accentGrad_coverstudio2svg)" stroke-width="3" opacity="0.6" />
  <path d="M 0 390 Q 220 280 440 410 T 800 320" fill="none" stroke="rgba(255,255,255,0.15)" stroke-width="1.5" />

  <g transform="translate(48, 64)">
    <rect x="0" y="0" width="200" height="32" rx="8" fill="rgba(0,0,0,0.35)" stroke="rgba(255,255,255,0.15)" stroke-width="1" />
    <circle cx="16" cy="16" r="4" fill="#38bdf8" />
    <text x="30" y="20" font-family="sans-serif" font-size="10" font-weight="700" fill="#ffffff" letter-spacing="1.5">02 / TELEMETRY & IOT</text>
  </g>

  <text x="48" y="160" font-family="sans-serif" font-size="34" font-weight="800" fill="#ffffff" letter-spacing="-0.5">Distributed Systems</text>
  
  <g transform="translate(48, 380)">
    <rect x="0" y="0" width="170" height="30" rx="8" fill="rgba(255,255,255,0.1)" stroke="rgba(255,255,255,0.2)" stroke-width="1" />
    <text x="16" y="19" font-family="monospace" font-size="11" font-weight="600" fill="#10b981">Realtime Mesh</text>
  </g>
</svg>